<?xml version="1.0" standalone="no"?>
<!DOCTYPE svg PUBLIC "-//W3C//DTD SVG 20010904//EN"
 "http://www.w3.org/TR/2001/REC-SVG-20010904/DTD/svg10.dtd">
<svg version="1.0" xmlns="http://www.w3.org/2000/svg"
 width="381.000000pt" height="388.000000pt" viewBox="0 0 381.000000 388.000000"
 preserveAspectRatio="xMidYMid meet">

<g transform="translate(0.000000,388.000000) scale(0.100000,-0.100000)"
fill="#000000" stroke="none">
<path d="M1373 3669 c-56 -10 -134 -31 -173 -47 -81 -32 -182 -102 -212 -146
-12 -17 -42 -53 -68 -81 -71 -75 -122 -155 -117 -183 3 -15 -2 -26 -16 -33
-16 -9 -17 -13 -6 -20 12 -8 12 -10 0 -18 -17 -11 -21 -78 -10 -166 8 -66 46
-205 60 -220 5 -5 9 -19 9 -31 0 -11 10 -32 23 -46 19 -20 22 -30 14 -49 -12
-32 -2 -119 23 -199 11 -36 27 -130 34 -210 14 -142 26 -194 53 -236 7 -11 10
-23 7 -27 -10 -10 76 -167 114 -209 19 -21 44 -53 55 -71 10 -17 28 -42 40
-54 25 -28 23 -30 -28 -37 -22 -2 -62 -14 -90 -25 -27 -11 -75 -29 -105 -41
-30 -11 -84 -38 -120 -60 -36 -21 -94 -52 -130 -68 -222 -103 -259 -123 -307
-166 -57 -51 -127 -135 -103 -122 8 4 7 1 -2 -7 -10 -8 -41 -64 -69 -126 -44
-97 -53 -130 -74 -259 -14 -82 -31 -232 -40 -334 -9 -111 -24 -216 -36 -260
-11 -40 -23 -83 -26 -96 l-5 -22 1871 0 1871 0 0 348 0 347 -65 109 c-35 59
-67 122 -70 140 -13 64 -28 85 -93 130 -131 89 -157 109 -174 127 -23 24 -157
102 -255 148 -119 57 -154 76 -189 107 -22 18 -52 40 -69 48 -64 30 -81 37
-97 40 -10 1 -25 9 -35 18 -31 27 -219 102 -279 111 -12 1 -32 10 -45 18 -13
9 -46 28 -74 42 -86 43 -95 58 -91 131 2 35 6 68 8 72 3 5 4 18 2 29 -1 11 1
22 6 25 11 7 20 84 26 230 3 58 11 126 19 151 14 44 9 122 -9 169 -4 9 -1 33
7 53 l13 38 29 -30 c37 -37 45 -38 45 -6 0 22 -9 30 -32 26 -18 -3 -6 20 18
35 20 13 24 23 19 41 -3 15 2 41 13 66 36 78 44 118 42 205 -2 48 -2 89 -1 92
1 3 4 28 6 55 5 63 -13 160 -38 202 -12 21 -15 33 -7 33 6 0 1 13 -12 29 -13
15 -25 27 -26 26 -7 -7 -42 36 -39 47 1 7 -4 12 -11 10 -16 -3 -64 33 -55 41
3 4 -2 9 -11 12 -9 3 -24 8 -33 11 -20 8 -34 10 -79 12 -19 1 -31 7 -31 16 0
10 8 13 26 9 19 -3 23 -1 15 7 -6 6 -20 12 -32 15 -11 2 -29 8 -39 13 -10 6
-40 12 -68 16 -27 3 -75 17 -105 32 -96 46 -380 58 -567 23z m559 -446 c26
-19 58 -46 70 -62 13 -15 30 -30 38 -34 27 -13 54 -32 67 -47 10 -13 14 -13
27 5 8 11 18 17 21 13 4 -4 8 -48 8 -99 0 -89 12 -169 27 -169 11 0 33 -75 27
-96 -3 -12 -5 -6 -6 14 -1 22 -5 31 -12 26 -6 -3 -16 0 -21 7 -7 10 -8 6 -5
-13 2 -17 -1 -29 -10 -32 -24 -10 -32 -7 -44 15 -6 13 -7 19 -1 15 15 -9 20
16 9 42 -8 18 -8 25 2 31 9 6 10 11 3 15 -6 3 -13 2 -17 -4 -3 -5 -19 -10 -36
-10 -16 0 -37 -4 -47 -9 -57 -29 -73 -33 -113 -27 -105 15 -209 6 -231 -21 -7
-9 -13 -29 -13 -45 -1 -25 -8 -34 -40 -52 -21 -11 -45 -27 -53 -34 -15 -13
-32 -8 -32 11 0 8 3 8 9 -2 6 -9 11 -10 15 -2 7 10 -6 16 -28 12 -24 -5 -44
15 -66 64 -32 72 -62 85 -202 84 -119 -1 -165 7 -178 31 -15 28 -7 164 10 185
8 10 36 35 62 56 l48 37 107 0 c105 -1 110 0 173 34 36 19 84 41 105 48 22 7
45 16 50 20 6 4 17 8 25 8 8 0 33 8 55 16 61 24 139 12 197 -31z m43 -513 c4
-6 -13 -10 -45 -10 -32 0 -49 4 -45 10 3 6 24 10 45 10 21 0 42 -4 45 -10z
m335 -61 c0 -15 -34 -79 -42 -79 -12 0 -10 74 3 87 12 12 39 7 39 -8z m-235
-10 c51 -14 64 -25 58 -49 -7 -27 -25 -25 -50 4 -14 16 -28 23 -41 19 -14 -3
-24 2 -31 16 -14 25 1 27 64 10z m-678 -16 c-4 -3 -2 -12 4 -20 6 -7 7 -13 3
-13 -5 0 -15 9 -22 20 -10 17 -10 20 5 20 9 0 13 -3 10 -7z m195 -9 c-13 -9
-26 -13 -30 -9 -8 8 17 25 38 25 9 0 6 -6 -8 -16z m-292 -28 c0 -3 -4 -8 -10
-11 -5 -3 -10 -1 -10 4 0 6 5 11 10 11 6 0 10 -2 10 -4z m58 -14 c2 -7 -5 -12
-17 -12 -14 0 -19 5 -14 15 6 17 25 15 31 -3z m462 2 c0 -8 -4 -12 -10 -9 -5
3 -10 10 -10 16 0 5 5 9 10 9 6 0 10 -7 10 -16z m160 7 c0 -10 -30 -24 -37
-17 -3 3 -2 9 2 15 8 13 35 15 35 2z m-364 -116 c29 -45 58 -77 71 -81 42 -11
49 -32 20 -62 -15 -16 -27 -37 -26 -48 0 -18 1 -18 9 2 17 43 66 40 76 -5 3
-14 7 -31 9 -38 5 -15 -81 -44 -110 -37 -17 4 -28 -2 -44 -25 -26 -36 -52 -39
-92 -10 -54 38 -111 184 -80 204 5 3 12 18 16 34 6 26 15 41 56 89 6 7 17 11
25 8 11 -4 13 1 8 19 -11 46 13 26 62 -50z m642 10 c-2 -19 0 -31 5 -28 5 3 6
-4 3 -15 -8 -25 -18 -82 -17 -104 0 -10 -4 -18 -10 -18 -5 0 -9 -8 -9 -17 0
-31 -27 -96 -44 -109 -9 -6 -25 -10 -35 -7 -16 4 -18 -1 -16 -36 1 -22 7 -47
13 -54 9 -11 6 -19 -12 -36 -15 -14 -22 -30 -19 -40 5 -13 3 -14 -8 -3 -19 17
-39 15 -39 -5 -1 -23 -36 -70 -46 -60 -4 4 -13 2 -21 -4 -10 -9 -13 -8 -13 4
0 8 -6 20 -14 26 -10 8 -13 23 -9 45 4 27 -2 43 -32 84 -36 51 -42 55 -102 67
-31 6 -33 9 -33 51 0 33 4 44 15 44 15 0 104 -88 105 -103 0 -10 61 -47 78
-47 22 0 12 31 -18 57 -17 14 -38 39 -47 57 -17 34 -56 74 -97 101 -14 10 -26
20 -26 24 0 3 48 6 108 7 120 1 202 17 227 44 9 10 23 36 30 57 7 21 21 42 32
48 10 5 22 16 27 24 13 21 29 -13 24 -54z m-321 49 c-3 -3 -12 -4 -19 -1 -8 3
-5 6 6 6 11 1 17 -2 13 -5z m193 -34 c0 -59 -27 -83 -88 -76 -30 4 -38 3 -22
-2 23 -8 22 -9 -15 -15 -72 -12 -188 -7 -234 11 -33 13 -49 27 -64 55 -11 21
-18 40 -15 42 2 2 44 -12 93 -32 89 -36 132 -42 208 -29 25 4 36 2 32 -4 -3
-5 1 -10 10 -10 12 0 15 6 10 20 -4 12 -2 20 4 20 6 0 25 14 43 30 17 17 33
30 34 30 2 0 4 -18 4 -40z m-1140 -40 c0 -11 12 -26 28 -34 18 -10 21 -15 10
-16 -9 0 -26 12 -37 26 -22 27 -29 60 -11 49 6 -3 10 -15 10 -25z m97 -16 c-3
-3 -12 -4 -19 -1 -8 3 -5 6 6 6 11 1 17 -2 13 -5z m93 -38 l45 -14 -56 -1
c-80 -1 -119 8 -112 26 7 17 46 13 123 -11z m-17 -60 c59 -4 107 -3 107 2 0 5
13 7 29 4 34 -5 33 -17 -5 -69 -13 -17 -24 -43 -24 -57 0 -30 -45 -86 -69 -86
-25 0 -71 23 -68 34 4 11 -40 56 -53 56 -6 0 -10 7 -10 15 0 8 -9 20 -20 27
-13 8 -20 24 -20 44 0 31 8 47 19 40 3 -2 54 -7 114 -10z m251 -89 c8 -7 17
-23 20 -35 6 -17 3 -22 -10 -22 -20 0 -43 28 -44 53 0 20 16 22 34 4z m364
-162 c12 -4 22 -12 22 -17 0 -6 7 -8 15 -4 8 3 15 1 15 -5 0 -7 -14 -8 -38 -4
-75 12 -133 14 -163 3 -22 -8 -34 -7 -42 1 -8 8 -6 11 9 11 10 0 30 6 44 14
26 13 98 14 138 1z m-564 -50 c-4 -8 -8 -15 -10 -15 -2 0 -4 7 -4 15 0 8 4 15
10 15 5 0 7 -7 4 -15z m576 -43 c0 -12 -40 -46 -70 -59 -32 -15 -183 -24 -235
-15 -31 6 -40 12 -40 27 0 22 30 31 140 41 39 3 72 8 74 10 8 8 131 4 131 -4z
m113 -126 c-3 -17 -12 -38 -19 -47 -8 -8 -14 -23 -14 -32 0 -9 -9 -21 -20 -27
-11 -6 -20 -21 -20 -35 0 -13 -4 -27 -10 -30 -5 -3 -10 -15 -10 -26 0 -24 -18
-24 -45 1 -26 25 -52 13 -36 -17 9 -17 6 -22 -16 -32 -33 -15 -55 2 -24 18 22
12 28 31 11 31 -6 0 -28 -8 -50 -19 -37 -18 -39 -18 -43 -1 -5 20 10 40 30 40
7 0 17 9 22 19 6 10 24 24 41 29 37 13 48 38 27 60 -15 14 -10 22 56 87 l72
72 27 -29 c21 -24 26 -37 21 -62z m-547 -52 c-6 -16 -10 -15 -31 11 -16 21
-20 32 -12 37 18 11 51 -27 43 -48z m344 41 c0 -25 -35 -35 -104 -28 -36 3
-66 10 -66 14 0 13 35 19 148 27 13 1 22 -4 22 -13z m-306 -104 c3 -5 27 -12
53 -16 86 -13 98 -41 21 -47 -55 -4 -62 0 -91 45 -14 22 -15 27 -3 27 8 0 17
-4 20 -9z m842 -117 c-3 -12 -2 -26 4 -29 5 -3 10 -1 10 6 0 7 3 10 6 6 4 -3
2 -20 -4 -36 -7 -21 -8 -33 -1 -37 7 -4 7 -10 0 -17 -7 -7 -7 -14 0 -24 7 -7
7 -13 2 -13 -5 0 -10 -12 -10 -27 -4 -67 -21 -131 -40 -159 -41 -56 -178 -182
-254 -233 -91 -61 -204 -115 -285 -136 -78 -20 -256 -20 -316 0 -51 18 -68 44
-68 103 0 20 -5 54 -11 75 -11 41 -5 78 6 40 4 -13 13 -23 20 -23 7 0 15 -7
19 -15 3 -8 15 -15 26 -15 11 0 29 -9 40 -20 23 -23 50 -26 68 -8 15 15 16 74
2 83 -15 9 -12 45 5 51 8 4 23 3 33 -1 53 -23 258 -6 301 25 17 12 35 18 41
15 5 -3 10 3 10 14 0 16 6 21 25 21 16 0 25 6 25 15 0 8 5 15 10 15 6 0 10 7
10 16 0 8 4 13 9 10 5 -3 18 10 29 28 13 22 17 36 10 38 -7 3 4 15 23 28 19
13 48 38 64 56 17 17 40 35 52 38 12 4 33 20 47 37 14 16 32 29 40 29 9 0 16
5 16 10 0 6 -5 10 -10 10 -6 0 -4 13 5 30 18 36 50 31 41 -6z m-1042 -454 c4
-25 3 -31 -4 -20 -5 8 -10 26 -10 39 0 32 6 24 14 -19z m22 -114 c2 -21 0 -26
-7 -19 -6 6 -13 30 -15 54 -4 39 -3 41 7 19 6 -14 12 -38 15 -54z"/>
</g>
</svg>
